<svg width="1485" height="1334" viewBox="0 0 1485 1334" fill="none" xmlns="http://www.w3.org/2000/svg">
<path d="M1449.41 773.312C1517.39 925.395 1485.58 1045 1353.96 1132.14C1222.35 1219.27 1091.02 1281.58 959.964 1319.05C828.909 1356.52 720.834 1319.32 635.739 1207.44C550.644 1095.56 421.391 1017.83 247.98 974.253C74.5685 930.678 -7.81457 825.619 0.830379 659.075C9.47533 492.531 60.7885 343.253 154.77 211.241C248.751 79.2285 375.473 9.70519 534.934 2.67089C694.396 -4.36341 853.341 5.04281 1011.77 30.8896C1170.2 56.7363 1265.75 148.914 1298.42 307.423C1331.1 465.933 1381.43 621.229 1449.41 773.312Z" fill="url(#paint0_linear)"/>
<defs>
<linearGradient id="paint0_linear" x1="492.182" y1="0.748731" x2="852.549" y2="1347.85" gradientUnits="userSpaceOnUse">
<stop stop-color="#285159"/>
<stop offset="1" stop-color="#18784B"/>
</linearGradient>
</defs>
</svg>
